HIERARCHY
ROOT Hips
{
	OFFSET 0.00 0.00 0.00
	CHANNELS 6 Xposition Yposition Zposition Zrotation Xrotation Yrotation
	JOINT LeftUpLeg
	{
		OFFSET 8.64259 1.95398 -2.38835
		CHANNELS 6 Xposition Yposition Zposition Zrotation Xrotation Yrotation
		JOINT LeftLeg
		{
			OFFSET 43.7702 0 0
			CHANNELS 6 Xposition Yposition Zposition Zrotation Xrotation Yrotation
			JOINT LeftFoot
			{
				OFFSET 40.6238 0 0
				CHANNELS 6 Xposition Yposition Zposition Zrotation Xrotation Yrotation
				End Site4
				{
					OFFSET 12.7242 0 0
				}
			}
		}
	}
	JOINT RightUpLeg
	{
		OFFSET -8.2249 1.95398 -2.59336
		CHANNELS 6 Xposition Yposition Zposition Zrotation Xrotation Yrotation
		JOINT RightLeg
		{
			OFFSET 43.5653 0 0
			CHANNELS 6 Xposition Yposition Zposition Zrotation Xrotation Yrotation
			JOINT RightFoot
			{
				OFFSET 40.6238 0 0
				CHANNELS 6 Xposition Yposition Zposition Zrotation Xrotation Yrotation
				End Site8
				{
					OFFSET 12.7242 0 0
				}
			}
		}
	}
	JOINT Spine
	{
		OFFSET 0.165834 0.87714 6.61349
		CHANNELS 6 Xposition Yposition Zposition Zrotation Xrotation Yrotation
		JOINT Spine1
		{
			OFFSET 7.38963 1.71661e-005 0
			CHANNELS 6 Xposition Yposition Zposition Zrotation Xrotation Yrotation
			JOINT Spine2
			{
				OFFSET 11.9445 1.14441e-005 0
				CHANNELS 6 Xposition Yposition Zposition Zrotation Xrotation Yrotation
				JOINT Spine3
				{
					OFFSET 14.7254 4.19617e-005 0
					CHANNELS 6 Xposition Yposition Zposition Zrotation Xrotation Yrotation
					JOINT Spine4
					{
						OFFSET 10.9679 0 0
						CHANNELS 6 Xposition Yposition Zposition Zrotation Xrotation Yrotation
						JOINT RightShoulder
						{
							OFFSET 2.46616 -1.6653 3.69651
							CHANNELS 6 Xposition Yposition Zposition Zrotation Xrotation Yrotation
							JOINT RightArm
							{
								OFFSET 13.0012 0 0
								CHANNELS 6 Xposition Yposition Zposition Zrotation Xrotation Yrotation
								JOINT RightForeArm
								{
									OFFSET 28.7848 1.52588e-005 0
									CHANNELS 6 Xposition Yposition Zposition Zrotation Xrotation Yrotation
									JOINT RightHand
									{
										OFFSET 26.5688 1.52588e-005 0
										CHANNELS 6 Xposition Yposition Zposition Zrotation Xrotation Yrotation
										JOINT RightHandMiddle1
										{
											OFFSET 8.03675 -0.886582 0.727868
											CHANNELS 6 Xposition Yposition Zposition Zrotation Xrotation Yrotation
											JOINT RightHandMiddle2
											{
												OFFSET 2.78833 0 0
												CHANNELS 6 Xposition Yposition Zposition Zrotation Xrotation Yrotation
												End Site20
												{
													OFFSET 2.41155 0 0
												}
											}
										}
										JOINT RightHandRing1
										{
											OFFSET 7.97966 -0.886765 -1.00486
											CHANNELS 6 Xposition Yposition Zposition Zrotation Xrotation Yrotation
											JOINT RightHandRing2
											{
												OFFSET 2.86368 0 0
												CHANNELS 6 Xposition Yposition Zposition Zrotation Xrotation Yrotation
												End Site23
												{
													OFFSET 2.11079 0 0
												}
											}
										}
										JOINT RightHandPinky1
										{
											OFFSET 8.03707 -0.887528 -2.60696
											CHANNELS 6 Xposition Yposition Zposition Zrotation Xrotation Yrotation
											JOINT RightHandPinky2
											{
												OFFSET 1.84628 0 0
												CHANNELS 6 Xposition Yposition Zposition Zrotation Xrotation Yrotation
												End Site26
												{
													OFFSET 1.88434 0 0
												}
											}
										}
										JOINT RightHandIndex1
										{
											OFFSET 7.92262 -0.885498 2.31175
											CHANNELS 6 Xposition Yposition Zposition Zrotation Xrotation Yrotation
											JOINT RightHandIndex2
											{
												OFFSET 2.63761 0 0
												CHANNELS 6 Xposition Yposition Zposition Zrotation Xrotation Yrotation
												End Site29
												{
													OFFSET 2.16656 0 0
												}
											}
										}
										JOINT RightHandThumb1
										{
											OFFSET 3.4769 0.0597992 2.88789
											CHANNELS 6 Xposition Yposition Zposition Zrotation Xrotation Yrotation
											JOINT RightHandThumb2
											{
												OFFSET 2.77686 9.72748e-005 -1.52588e-005
												CHANNELS 6 Xposition Yposition Zposition Zrotation Xrotation Yrotation
												End Site32
												{
													OFFSET 2.42058 -9.15528e-005 0
												}
											}
										}
									}
								}
							}
						}
						JOINT LeftShoulder
						{
							OFFSET 2.38034 -1.29275 -3.75231
							CHANNELS 6 Xposition Yposition Zposition Zrotation Xrotation Yrotation
							JOINT LeftArm
							{
								OFFSET 16.3182 6.10352e-005 0
								CHANNELS 6 Xposition Yposition Zposition Zrotation Xrotation Yrotation
								JOINT LeftForeArm
								{
									OFFSET 27.0901 0 0
									CHANNELS 6 Xposition Yposition Zposition Zrotation Xrotation Yrotation
									JOINT LeftHand
									{
										OFFSET 24.5451 1.52588e-005 0
										CHANNELS 6 Xposition Yposition Zposition Zrotation Xrotation Yrotation
										JOINT LeftHandMiddle1
										{
											OFFSET 9.21802 0.665817 0.545532
											CHANNELS 6 Xposition Yposition Zposition Zrotation Xrotation Yrotation
											JOINT LeftHandMiddle2
											{
												OFFSET 2.66255 0 0
												CHANNELS 6 Xposition Yposition Zposition Zrotation Xrotation Yrotation
												End Site39
												{
													OFFSET 2.2804 0 0
												}
											}
										}
										JOINT LeftHandRing1
										{
											OFFSET 9.24775 0.665192 -1.1267
											CHANNELS 6 Xposition Yposition Zposition Zrotation Xrotation Yrotation
											JOINT LeftHandRing2
											{
												OFFSET 2.47041 0 -1.52588e-005
												CHANNELS 6 Xposition Yposition Zposition Zrotation Xrotation Yrotation
												End Site42
												{
													OFFSET 2.2054 0 0
												}
											}
										}
										JOINT LeftHandPinky1
										{
											OFFSET 9.35384 0.66301 -2.72332
											CHANNELS 6 Xposition Yposition Zposition Zrotation Xrotation Yrotation
											JOINT LeftHandPinky2
											{
												OFFSET 1.63407 0 0
												CHANNELS 6 Xposition Yposition Zposition Zrotation Xrotation Yrotation
												End Site45
												{
													OFFSET 1.71176 0 0
												}
											}
										}
										JOINT LeftHandIndex1
										{
											OFFSET 8.73161 0.675903 2.06801
											CHANNELS 6 Xposition Yposition Zposition Zrotation Xrotation Yrotation
											JOINT LeftHandIndex2
											{
												OFFSET 2.66689 0 0
												CHANNELS 6 Xposition Yposition Zposition Zrotation Xrotation Yrotation
												End Site48
												{
													OFFSET 2.12946 0 1.52588e-005
												}
											}
										}
										JOINT LeftHandThumb1
										{
											OFFSET 4.96735 -0.62265 3.39586
											CHANNELS 6 Xposition Yposition Zposition Zrotation Xrotation Yrotation
											JOINT LeftHandThumb2
											{
												OFFSET 2.15386 1.52588e-005 0
												CHANNELS 6 Xposition Yposition Zposition Zrotation Xrotation Yrotation
												End Site51
												{
													OFFSET 2.19511 -3.43323e-005 1.52588e-005
												}
											}
										}
									}
								}
							}
						}
						JOINT Neck
						{
							OFFSET 5.0226 -0.0266342 0
							CHANNELS 6 Xposition Yposition Zposition Zrotation Xrotation Yrotation
							JOINT Head
							{
								OFFSET 6.69364 2.86102e-005 0
								CHANNELS 6 Xposition Yposition Zposition Zrotation Xrotation Yrotation
								End Site54
								{
									OFFSET 0 0 0
								}
							}
						}
					}
				}
			}
		}
	}
}
MOTION
Frames: 5
Frame Time: 0.0416667
-106.411	69.1296	82.7433	-4.96769	-79.4132	3.43306	8.64259 1.95398 -2.38835 172.79	75.1908	120.636	43.7702 0 0 -91.1651	0.651273	1.11364	40.6238 0 0 62.9997	0.867163	1.08906	-8.2249 1.95398 -2.59336 155.028	68.3309	103.945	43.5653 0 0 -85.0578	-2.65345	2.23235	40.6238 0 0 59.2891	-1.00941	-1.47668	0.165834 0.87714 6.61349 1.92997	16.5926	-89.8243	7.38963 1.71661e-005 0 14.1935	4.3381e-006	4.07807e-013	11.9445 1.14441e-005 0 2.5225	-3.71449e-012	-1.98785e-016	14.7254 4.19617e-005 0 -20.0126	9.59253e-008	8.10246e-013	10.9679 0 0 -1.2712e-029	6.10666e-013	1.19271e-015	2.46616 -1.6653 3.69651 100.944	-18.6919	-85.9273	13.0012 0 0 17.7245	-41.2929	-33.2864	28.7848 1.52588e-005 0 0.801685	16.7286	-5.59241	26.5688 1.52588e-005 0 -19.5189	-0.0208479	6.98218	8.03675 -0.886582 0.727868 -89.4043	88.9709	89.0941	2.78833 0 0 -0.0604881	-1.66753e-009	1.56334e-010	7.97966 -0.886765 -1.00486 -89.3948	88.9811	89.0846	2.86368 0 0 -1.15742	3.18055e-015	-5.21054e-011	8.03707 -0.887528 -2.60696 -88.8572	89.3579	88.547	1.84628 0 0 -1.14578	3.18055e-015	4.77083e-015	7.92262 -0.885498 2.31175 -89.423	88.9487	89.1127	2.63761 0 0 0.409286	3.18055e-015	1.04214e-010	3.4769 0.0597992 2.88789 104.364	40.5023	-88.8246	2.77686 9.72748e-005 -1.52588e-005 -7.66903	0.186177	-1.35044	2.38034 -1.29275 -3.75231 -79.1782	-21.5713	93.2198	16.3182 6.10352e-005 0 -21.3372	14.2761	-28.3676	27.0901 0 0 0.0240577	-29.7523	0.000527286	24.5451 1.52588e-005 0 14.9697	1.82837	1.76955	9.21802 0.665817 0.545532 -91.1873	-87.8289	-89.9988	2.66255 0 0 3.40888	1.59028e-015	-2.08443e-010	9.24775 0.665192 -1.1267 -91.1871	-89.4015	-89.9985	2.47041 0 -1.52588e-005 2.85637	6.67011e-009	2.60543e-010	9.35384 0.66301 -2.72332 88.8084	-89.7171	89.9969	1.63407 0 0 2.54481	0	1.43306e-010	8.73161 0.675903 2.06801 -91.1883	-86.1973	-89.9998	2.66689 0 0 6.13104	-6.6701e-009	3.12664e-010	4.96735 -0.62265 3.39586 -101.949	-40.7242	-90.0694	2.15386 1.52588e-005 0 10.0172	1.59028e-015	8.53774e-007	5.0226 -0.0266342 0 1.75372	8.88591e-006	4.07906e-013	6.69364 2.86102e-005 0 1.59314	-10.0381	-14.2531
-107.363	66.1042	82.6105	15.9	-76.9579	23.2739	8.64259 1.95398 -2.38835 158.529	79.7223	129.501	43.7702 0 0 -94.6446	-0.208484	2.07352	40.6238 0 0 61.6453	0.885589	1.2466	-8.2249 1.95398 -2.59336 145.901	70.3563	110.325	43.5653 0 0 -90.5796	-2.85897	0.739752	40.6238 0 0 59.893	-0.994668	-1.46071	0.165834 0.87714 6.61349 1.60302	19.5589	-86.6649	7.38963 1.71661e-005 0 14.1935	4.3381e-006	4.05918e-013	11.9445 1.14441e-005 0 2.5225	-3.71489e-012	-1.59028e-015	14.7254 4.19617e-005 0 -20.0126	9.59253e-008	8.17402e-013	10.9679 0 0 3.18055e-015	6.12257e-013	-0	2.46616 -1.6653 3.69651 100.944	-18.6919	-85.9273	13.0012 0 0 -8.01619	-45.4501	-58.5303	28.7848 1.52588e-005 0 -17.3735	10.9226	-16.8847	26.5688 1.52588e-005 0 -13.1231	1.30839	7.45226	8.03675 -0.886582 0.727868 -89.4043	88.9709	89.0941	2.78833 0 0 -0.0604881	-1.66753e-009	1.56318e-010	7.97966 -0.886765 -1.00486 -89.3948	88.9811	89.0846	2.86368 0 0 -1.15742	1.59028e-015	-5.2107e-011	8.03707 -0.887528 -2.60696 -88.8572	89.3579	88.547	1.84628 0 0 -1.14578	0	-0	7.92262 -0.885498 2.31175 -89.423	88.9487	89.1127	2.63761 0 0 0.409286	1.59028e-015	1.04227e-010	3.4769 0.0597992 2.88789 104.364	40.5023	-88.8246	2.77686 9.72748e-005 -1.52588e-005 -7.66903	0.186177	-1.35044	2.38034 -1.29275 -3.75231 -79.1782	-21.5713	93.2198	16.3182 6.10352e-005 0 -7.12866	30.7165	-56.476	27.0901 0 0 3.20707	-35.3037	-3.06085	24.5451 1.52588e-005 0 13.484	1.06556	5.3723	9.21802 0.665817 0.545532 -91.1873	-87.8289	-89.9988	2.66255 0 0 3.40888	4.77083e-015	-2.08438e-010	9.24775 0.665192 -1.1267 -91.1871	-89.4015	-89.9985	2.47041 0 -1.52588e-005 2.85637	6.67011e-009	2.6055e-010	9.35384 0.66301 -2.72332 88.8084	-89.7171	89.9969	1.63407 0 0 2.54481	7.95139e-016	1.433e-010	8.73161 0.675903 2.06801 -91.1883	-86.1973	-89.9998	2.66689 0 0 6.13104	-6.6701e-009	3.12664e-010	4.96735 -0.62265 3.39586 -101.949	-40.7242	-90.0694	2.15386 1.52588e-005 0 10.0172	7.95139e-015	8.53774e-007	5.0226 -0.0266342 0 1.75372	8.88591e-006	4.05521e-013	6.69364 2.86102e-005 0 8.60451	-9.34757	-15.1928
-108.019	65.785	82.2572	15.5517	-75.3254	23.3974	8.64259 1.95398 -2.38835 144.635	80.7491	143.18	43.7702 0 0 -94.8426	0.202729	1.61715	40.6238 0 0 62.0302	0.900345	1.24087	-8.2249 1.95398 -2.59336 145.186	72.9555	111.655	43.5653 0 0 -91.9459	-2.5873	0.872811	40.6238 0 0 59.4604	-1.03777	-1.59024	0.165834 0.87714 6.61349 1.06647	20.5632	-86.3656	7.38963 1.71661e-005 0 14.1935	4.3381e-006	4.03533e-013	11.9445 1.14441e-005 0 2.5225	-3.71648e-012	3.9757e-016	14.7254 4.19617e-005 0 -20.0126	9.59253e-008	8.12632e-013	10.9679 0 0 -0	6.11462e-013	-0	2.46616 -1.6653 3.69651 100.944	-18.6919	-85.9273	13.0012 0 0 -29.1685	-35.0782	-75.1962	28.7848 1.52588e-005 0 -25.3249	5.24093	-23.905	26.5688 1.52588e-005 0 -7.82121	3.51417	9.95026	8.03675 -0.886582 0.727868 -89.4043	88.9709	89.0941	2.78833 0 0 -0.0604881	-1.66752e-009	1.56327e-010	7.97966 -0.886765 -1.00486 -89.3948	88.9811	89.0846	2.86368 0 0 -1.15742	-3.57812e-015	-5.21102e-011	8.03707 -0.887528 -2.60696 -88.8572	89.3579	88.547	1.84628 0 0 -1.14578	3.57812e-015	6.36111e-015	7.92262 -0.885498 2.31175 -89.423	88.9487	89.1127	2.63761 0 0 0.409286	-2.38542e-015	1.04224e-010	3.4769 0.0597992 2.88789 104.364	40.5023	-88.8246	2.77686 9.72748e-005 -1.52588e-005 -7.66903	0.186177	-1.35044	2.38034 -1.29275 -3.75231 -79.1782	-21.5713	93.2198	16.3182 6.10352e-005 0 25.1215	35.484	-86.9607	27.0901 0 0 14.9054	-23.8604	-14.2884	24.5451 1.52588e-005 0 13.6335	1.36465	2.92212	9.21802 0.665817 0.545532 -91.1873	-87.8289	-89.9988	2.66255 0 0 3.40888	7.95139e-015	-2.08444e-010	9.24775 0.665192 -1.1267 -91.1871	-89.4015	-89.9985	2.47041 0 -1.52588e-005 2.85637	6.67011e-009	2.60551e-010	9.35384 0.66301 -2.72332 88.8084	-89.7171	89.9969	1.63407 0 0 2.54481	0	1.43294e-010	8.73161 0.675903 2.06801 -91.1883	-86.1973	-89.9998	2.66689 0 0 6.13104	-6.6701e-009	3.12652e-010	4.96735 -0.62265 3.39586 -101.949	-40.7242	-90.0694	2.15386 1.52588e-005 0 10.0172	-1.03368e-014	8.53774e-007	5.0226 -0.0266342 0 1.75372	8.88591e-006	4.10291e-013	6.69364 2.86102e-005 0 12.5356	-5.7928	-12.8487
-108.458	67.2662	82.5096	16.4723	-74.5019	24.0613	8.64259 1.95398 -2.38835 153.617	80.6421	134.983	43.7702 0 0 -92.3044	0.0910132	1.78194	40.6238 0 0 62.5648	0.887952	1.18185	-8.2249 1.95398 -2.59336 149.994	71.8239	106.476	43.5653 0 0 -89.5197	-2.80193	1.46609	40.6238 0 0 59.5945	-1.0145	-1.52557	0.165834 0.87714 6.61349 0.109701	19.9313	-85.2711	7.38963 1.71661e-005 0 14.1935	4.3381e-006	4.08304e-013	11.9445 1.14441e-005 0 2.5225	-3.7133e-012	1.59028e-015	14.7254 4.19617e-005 0 -20.0126	9.59253e-008	8.16607e-013	10.9679 0 0 -6.36111e-015	6.11462e-013	-0	2.46616 -1.6653 3.69651 100.944	-18.6919	-85.9273	13.0012 0 0 -38.1517	-27.0038	-81.782	28.7848 1.52588e-005 0 -24.9212	4.33376	-24.8376	26.5688 1.52588e-005 0 2.4646	2.01612	2.56892	8.03675 -0.886582 0.727868 -89.4043	88.9709	89.0941	2.78833 0 0 -0.0604881	-1.66752e-009	1.56334e-010	7.97966 -0.886765 -1.00486 -89.3948	88.9811	89.0846	2.86368 0 0 -1.15742	-7.95138e-015	-5.21166e-011	8.03707 -0.887528 -2.60696 -88.8572	89.3579	88.547	1.84628 0 0 -1.14578	0	9.54166e-015	7.92262 -0.885498 2.31175 -89.423	88.9487	89.1127	2.63761 0 0 0.409286	3.18055e-015	1.04217e-010	3.4769 0.0597992 2.88789 104.364	40.5023	-88.8246	2.77686 9.72748e-005 -1.52588e-005 -7.66903	0.186177	-1.35044	2.38034 -1.29275 -3.75231 -79.1782	-21.5713	93.2198	16.3182 6.10352e-005 0 37.9062	29.7067	-99.3485	27.0901 0 0 32.9898	-5.94965	-26.6449	24.5451 1.52588e-005 0 10.4201	1.58186	-2.43065	9.21802 0.665817 0.545532 -91.1873	-87.8289	-89.9988	2.66255 0 0 3.40888	3.18055e-015	-2.08441e-010	9.24775 0.665192 -1.1267 -91.1871	-89.4015	-89.9985	2.47041 0 -1.52588e-005 2.85637	6.6701e-009	2.60554e-010	9.35384 0.66301 -2.72332 88.8084	-89.7171	89.9969	1.63407 0 0 2.54481	0	1.433e-010	8.73161 0.675903 2.06801 -91.1883	-86.1973	-89.9998	2.66689 0 0 6.13104	-6.6701e-009	3.12655e-010	4.96735 -0.62265 3.39586 -101.949	-40.7242	-90.0694	2.15386 1.52588e-005 0 10.0172	3.18055e-015	8.53774e-007	5.0226 -0.0266342 0 1.75372	8.88591e-006	4.05521e-013	6.69364 2.86102e-005 0 13.9061	-3.46359	-11.4048
-108.596	70.4307	82.9428	13.6886	-72.5061	20.5434	8.64259 1.95398 -2.38835 165.772	79.3575	122.904	43.7702 0 0 -87.0237	0.452594	1.27953	40.6238 0 0 63.6562	0.873985	1.04846	-8.2249 1.95398 -2.59336 149.504	70.2122	106.887	43.5653 0 0 -83.9652	-2.58857	1.91664	40.6238 0 0 59.702	-0.976008	-1.38145	0.165834 0.87714 6.61349 0.374325	16.2583	-85.2024	7.38963 1.71661e-005 0 14.1935	4.3381e-006	4.08701e-013	11.9445 1.14441e-005 0 2.5225	-3.71489e-012	-3.9757e-016	14.7254 4.19617e-005 0 -20.0126	9.59253e-008	8.16607e-013	10.9679 0 0 6.36111e-015	6.12257e-013	3.18055e-015	2.46616 -1.6653 3.69651 100.944	-18.6919	-85.9273	13.0012 0 0 -44.3706	-25.2174	-85.7423	28.7848 1.52588e-005 0 -23.3559	4.9756	-24.2495	26.5688 1.52588e-005 0 7.31665	1.09215	-0.563547	8.03675 -0.886582 0.727868 -89.4043	88.9709	89.0941	2.78833 0 0 -0.0604881	-1.66753e-009	1.56327e-010	7.97966 -0.886765 -1.00486 -89.3948	88.9811	89.0846	2.86368 0 0 -1.15742	-6.36111e-015	-5.21197e-011	8.03707 -0.887528 -2.60696 -88.8572	89.3579	88.547	1.84628 0 0 -1.14578	-6.36111e-015	3.18055e-015	7.92262 -0.885498 2.31175 -89.423	88.9487	89.1127	2.63761 0 0 0.409286	9.54166e-015	1.04217e-010	3.4769 0.0597992 2.88789 104.364	40.5023	-88.8246	2.77686 9.72748e-005 -1.52588e-005 -7.66903	0.186177	-1.35044	2.38034 -1.29275 -3.75231 -79.1782	-21.5713	93.2198	16.3182 6.10352e-005 0 36.5985	26.2773	-101.378	27.0901 0 0 38.5894	-8.15057	-43.9026	24.5451 1.52588e-005 0 10.5407	0.997831	1.93354	9.21802 0.665817 0.545532 -91.1873	-87.8289	-89.9988	2.66255 0 0 3.40888	-1.59028e-015	-2.08438e-010	9.24775 0.665192 -1.1267 -91.1871	-89.4015	-89.9985	2.47041 0 -1.52588e-005 2.85637	6.67011e-009	2.6055e-010	9.35384 0.66301 -2.72332 88.8084	-89.7171	89.9969	1.63407 0 0 2.54481	2.38542e-015	1.43302e-010	8.73161 0.675903 2.06801 -91.1883	-86.1973	-89.9998	2.66689 0 0 6.13104	-6.67011e-009	3.12662e-010	4.96735 -0.62265 3.39586 -101.949	-40.7242	-90.0694	2.15386 1.52588e-005 0 10.0172	3.18055e-015	8.53774e-007	5.0226 -0.0266342 0 1.75372	8.88591e-006	4.04725e-013	6.69364 2.86102e-005 0 13.8721	-1.69667	-8.36517
